<svg xmlns="http://www.w3.org/2000/svg" viewBox="0 0 400 480"><defs><linearGradient id="metal" x1="0" x2="1"><stop stop-color="#8b979e"/><stop offset=".22" stop-color="#e4e8e8"/><stop offset=".48" stop-color="#b4c0c6"/><stop offset=".75" stop-color="#f1f3f1"/><stop offset="1" stop-color="#8b969d"/></linearGradient><linearGradient id="side" x1="0" x2="1"><stop stop-color="#55646d"/><stop offset="1" stop-color="#a6b0b5"/></linearGradient><linearGradient id="glass" x2=".8" y2="1"><stop stop-color="#102d3d"/><stop offset=".45" stop-color="#426275"/><stop offset="1" stop-color="#101f2b"/></linearGradient><linearGradient id="white" x2="1" y2=".6"><stop stop-color="#fff"/><stop offset=".7" stop-color="#e9edef"/><stop offset="1" stop-color="#bdc9d0"/></linearGradient><linearGradient id="screen" x2="1" y2="1"><stop stop-color="#144da0"/><stop offset=".5" stop-color="#2e98c4"/><stop offset="1" stop-color="#062351"/></linearGradient><filter id="shadow"><feGaussianBlur stdDeviation="9"/></filter></defs><ellipse cx="200" cy="442" rx="133" ry="15" fill="#233547" opacity=".16" filter="url(#shadow)"/><path d="M68 133L292 112L331 143V411L295 440L68 417Z" fill="url(#side)"/><path d="M68 143H295V434H68Z" fill="url(#white)" stroke="#acb9c0"/><path d="M68 143L103 98L327 103L295 143Z" fill="#edf2f4" stroke="#9eacb5"/><path d="M97 136L119 108H300L280 136Z" fill="url(#glass)"/><path d="M69 143H295V187H69Z" fill="#dbe2e6"/><rect x="164" y="151" width="51" height="21" rx="3" fill="#142b3b"/><text x="190" y="166" font-size="11" font-family="sans-serif" fill="#87d3ec" text-anchor="middle">0:45</text><circle cx="111" cy="162" r="13" fill="url(#metal)" stroke="#7d919e"/><circle cx="111" cy="162" r="8" fill="#eaf0f2"/><path d="M112 151V157" stroke="#486375"/><circle cx="237" cy="159" r="3" fill="#566e7c"/><circle cx="253" cy="159" r="3" fill="#566e7c"/><circle cx="269" cy="159" r="3" fill="#62a5c1"/><path d="M90 206H270V411H90Z" rx="5" fill="none" stroke="#d0dbe0"/><path d="M71 191H292" stroke="#fff"/><text x="183" y="241" text-anchor="middle" font-family="sans-serif" font-size="9" letter-spacing="3" fill="#7c929f">AUTOMATIC</text><path d="M80 432V442M282 433V443" stroke="#384f5c" stroke-width="9"/></svg>